<svg version="1" xmlns="http://www.w3.org/2000/svg" width="506.667" height="506.667" viewBox="0 0 380.000000 380.000000"><path d="M176.5 58.6c-24.9 3.8-44.2 14.8-59.5 34-27.3 34.3-24.5 82.8 6.8 116.6 17.6 19 50.5 29.3 78.1 24.6l6.9-1.2 4.4 3.9 4.3 3.9.3-20.3c.1-11.2.1-20.6-.1-20.8-.2-.2-3.3 1-6.8 2.6-23.7 10.7-53.4 3.9-70.1-16.2-15.8-19-18.8-43.3-8.1-65.6 4.9-10.4 16.9-22.4 27.3-27.5 11.8-5.8 18.4-6.5 57.4-6.6h34l-3-3.1c-7.7-8.2-26.4-18.5-39.8-21.9-7.6-1.9-26-3.3-32.1-2.4z"/><path d="M182.4 114.1c-26.3 3.2-37.7 34.9-19.8 54.8 6.7 7.4 13.8 10.6 23.9 10.6 6.7 0 9-.5 14-2.8 6.2-2.9 12.8-8.4 11.9-9.9-.3-.4-6.1-.8-12.9-.8-9.6 0-12.4-.3-12.8-1.4-.9-2.2.4-14.8 1.8-18.3 2.7-6.5 4-6.8 32.5-6.8h25.5l.3 35.7c.1 20.2.6 35.8 1.1 35.8 1.7 0 9.7-9.8 13.9-16.8 5.2-8.8 10.5-21.9 12-29.7 2.5-13.3 2.5-18.9-.4-37.1-.6-3.8-.3-4.5 3-8.1 2-2.2 3.6-4.6 3.6-5.2 0-1.3-86.9-1.3-97.6 0zM44.5 253c-2.2 2.3-2.8 3.9-2.9 7.4-.2 8 5.6 12.9 13.1 11 3.7-.9 3.8-1 3.8-5.7.1-4.4-.1-4.7-2.6-4.7-2.4 0-2.7.4-2.5 3.2.1 2.9-.3 3.3-2.6 3.6-4.8.6-7.4-6.2-4.6-12.2.6-1.4 1.9-2.8 3-3.1 2.6-.9 5.8.4 5.8 2.2 0 1-.6 1.4-2 1-1.3-.3-2 0-2 .9 0 1.7 5.1 1.9 6.8.2.7-.7 1.2-2.2 1.2-3.4 0-1.6-.8-2.3-3.1-2.8-6-1.2-8.5-.7-11.4 2.4zM155.5 250.7l-3 .4.1 9.6c0 10.8.2 11.1 8 11.2 7.9.2 12.7-7.5 7.2-11.3-1.7-1.2-2-1.8-1-2.8 1.5-1.5 1.5-5.1 0-6.6-1.2-1.2-4.9-1.3-11.3-.5zm8.2 2.9c.6 1.6-3.6 6.4-5.7 6.4-1.4 0-1.3-5.3.2-6.8 1.7-1.7 4.8-1.5 5.5.4zm.8 8.4c1.5 1.7 1.6 2.4.7 4.5-1.5 3.3-6.7 3.6-7.7.4-.8-2.3 1.4-5.4 2.2-3.2.3.7.9 1.3 1.5 1.3s.6-.6-.2-1.5c-1.2-1.4-.6-3.5.9-3.5.4 0 1.6.9 2.6 2zM233.3 251.8c-2 1.6-2.1 2.2-1.4 8.7.5 3.8.4 7.7 0 8.6-1.1 2.1-.2 2.9 3.4 2.9 2.4 0 2.8-.3 2.2-1.8-2.2-4.9-1.3-10.9 1-7.2 1 1.6 6.2 1.2 7.9-.6 2.6-2.5 2-7.9-1-10.3-3.3-2.6-9.1-2.7-12.1-.3zm11.5 5.6c.2.9-.2 2.3-.8 3.1-1.6 2-5 1.9-5 0 0-.8.7-1.5 1.6-1.5.8 0 1.2-.5.9-1-.5-.8-1.1-.7-2.1.1-2.7 2.2-3.9-.6-1.4-3.1 1.9-1.9 2.4-2 4.3-.7 1.2.8 2.3 2.2 2.5 3.1zM283.8 254.2c-.2 2.6-.8 3.3-2.4 3.3-5.5 0-8.8 9-4.6 12.8 2 1.8 10.8 1.8 10.6-.1-.1-.7-.2-5.3-.2-10.2-.2-7.1-.5-9-1.6-9-.9 0-1.6 1.2-1.8 3.2zm-1.7 7.3c.1.5.5 1.5 1.1 2.2 1.4 1.8 0 5.3-2.2 5.3s-3.4-3.2-2.6-6.6c.6-2.4 3.7-3.1 3.7-.9zM78.2 254.2c.6 1.8 2.8 2.1 2.8.4 0-.9-.7-1.6-1.6-1.6-.9 0-1.4.5-1.2 1.2zM320.1 256.2c-1.8 2.9-1.5 12.8.4 14.7.7.8 2.1 1.1 3 .7 1.4-.5 1.5-.9.5-2.1-.8-1-1.1-3.4-.8-6.7.5-5.2.1-8.8-1.1-8.8-.3 0-1.3 1-2 2.2zM65.2 257.7c-3.3.4-3.3.5-1.8 2.8 1.3 2 1.3 2.5.1 3.5-1.8 1.5-2 5.6-.2 6.7.6.4 3.4.8 6 .8h4.8l-.6-5c-.6-4.9-2.8-9.7-4.3-9.3-.4 0-2.2.3-4 .5zm3.8 3.8c0 .8-.7 1.5-1.5 1.5s-1.5-.7-1.5-1.5.7-1.5 1.5-1.5 1.5.7 1.5 1.5zm.3 6.6c-.7.7-2 .8-3 .5-1.7-.7-1.7-.8.1-2.2 2.3-1.7 4.8-.2 2.9 1.7zM85.4 258.2c-.3.4.1 1.6.7 2.7 1 1.5.9 2.2-.4 3.6-2.1 2-2.1 2.5-.2 5.2 1.3 1.8 2.4 2.2 6.3 1.9 2.6-.1 4.7-.7 4.7-1.2-.1-4-1.8-11.5-2.7-12-1.6-1-7.8-1.2-8.4-.2zm6.1 2.9c1 1.5-.1 2.3-2 1.5-.9-.3-1.3-1-1-1.6.8-1.3 2.2-1.3 3 .1zm.5 6.5c0 .8-.9 1.4-2 1.4-2.2 0-2.8-2.6-.7-3.3 1.6-.6 2.7.1 2.7 1.9zM104 257.9l-3.5.6v6.5c0 5.3.3 6.5 1.7 6.8 1.4.3 1.7-.6 2-5.5.2-4.4.7-5.8 1.8-5.8s1.6 1.4 1.8 5.8c.3 4.9.6 5.8 2 5.5.9-.2 1.7-.9 1.6-1.6-.1-.6-.2-3.4-.2-6.2-.2-5.7-1.7-6.9-7.2-6.1zM117.8 257.7c-3.1.5-3.4 1.3-1.6 3.1 1 1 .9 1.8-.4 4-1.5 2.6-1.6 3.1-.2 5 1.2 1.7 2.3 2.1 5.9 1.8 2.4-.1 4.7-.5 5-.8 1-1-1.7-11.3-3.3-12.6-.9-.6-1.8-1.1-2.1-1.1-.3.1-1.8.4-3.3.6zm4.2 3.8c0 .8-.6 1.5-1.4 1.5-1.7 0-2.8-1.4-1.9-2.4 1.2-1.2 3.3-.6 3.3.9zm0 5.5c0 1.3-.7 2-2 2-2.5 0-2.7-2.7-.2-3.3.9-.3 1.8-.5 2-.6.1 0 .2.8.2 1.9zM136.5 257.5c-.5.2-2.1.6-3.6.9-2.4.5-2.5.8-2.3 6.8.1 4.9.5 6.4 1.7 6.6 1.3.3 1.7-.8 1.9-5.5.2-4.4.7-5.8 1.8-5.8s1.6 1.5 2 5.5c.4 4 .9 5.5 2 5.5 2.3 0 2.7-10.7.5-12.9-1.6-1.6-2.1-1.7-4-1.1zM187.8 257.7c-2.9.4-3.6 2.1-1.8 3.9.8.8.6 1.5-.5 2.4-1.8 1.5-2 5.6-.2 6.7.6.4 3.3.8 5.9.8h4.8l-.7-5.5c-.5-4.9-2.6-9.3-4.2-8.9-.3.1-1.8.4-3.3.6zm3.2 3.8c0 .8-.7 1.5-1.5 1.5s-1.5-.7-1.5-1.5.7-1.5 1.5-1.5 1.5.7 1.5 1.5zm.3 6.6c-.7.7-2 .8-3 .5-1.7-.7-1.7-.8.1-2.2 2.3-1.7 4.8-.2 2.9 1.7zM200.4 259.1c-1.5 1.7-1.6 2.3-.5 4.1 1 1.6 1 2.2.1 2.8-.7.4-1 1.5-.8 2.5.9 5 9 4.3 9.6-.8.3-2.4-.2-3-2.7-4-3.8-1.4-4.3-4-.6-3.1 1.8.4 2.5.2 2.5-.9 0-.8-1-1.7-2.2-2.1-3.3-.8-3.3-.8-5.4 1.5zm5.1 9c0 .7-.8 1.5-1.7 1.7-1.8.3-2.5-1.8-1.1-3.2 1-1 2.8-.1 2.8 1.5zM213.5 258.3c-1.3 1-1.6 2.1-1.1 4 .4 1.6.1 3.5-.6 4.7-1.1 1.8-1 2.3.6 3.6 2.7 1.9 6 1.8 7.9-.4 2.5-2.7 2.1-4-1.8-6.3-3.6-2.1-3.9-4.5-.4-3.4 2.4.8 2.7-2 .3-2.9-2.2-.9-2.8-.8-4.9.7zm4.5 9.1c0 2-1.9 3.1-3.2 1.8-.6-.6-.7-1.5-.4-2.1 1-1.6 3.6-1.3 3.6.3zM265.6 258.6c-1.9 1.8-1.2 3.6 1.2 3.2 4.1-.6 6 4.5 2.2 5.7-2.5.8-5-1-5-3.6 0-1.1-.4-1.9-1-1.9-.5 0-1 1.5-1 3.3 0 6.7 7.2 8.9 9.8 3.2 1.7-3.7 1.5-5.9-.9-8.9s-3.2-3.2-5.3-1zM308.1 258.9c-2.7 2.7-2.9 9.1-.3 11.4 2.2 2 5.3 2.2 7 .5 1.9-1.9 1.4-2.9-1.1-2.3-4.1 1.1-6.6-4.2-3.7-7.7l1.9-2.3.1 2.3c0 1.7.5 2.3 1.8 2 2.2-.4 3-4.8.9-4.8-.9 0-2.2-.3-3-.6-.9-.3-2.5.4-3.6 1.5zM329.5 258.3c-1.3 1-1.6 2.2-1.3 4.2.3 1.6.1 3.7-.6 4.7-2.3 3.9 5.5 6.6 8.8 2.9 2.1-2.3 1.2-4.7-2.5-6.7-3.6-1.8-3.9-3.9-.4-3 2.8.7 3.7-1.7.9-2.8-2.2-.9-2.8-.8-4.9.7zm4.1 8.8c1 1.7-1.3 3.6-2.7 2.2-1.2-1.2-.4-3.3 1.1-3.3.5 0 1.2.5 1.6 1.1zM78.4 259.2c-.4.6-.6 3.5-.5 6.4.1 2.9-.3 6.2-.9 7.4-1.6 2.9-.5 3.7 2 1.5 1.7-1.5 2-3.1 2-9.2 0-6.8-.9-8.9-2.6-6.1zM174.5 258.8c-.6.4-1 3.4-.9 6.7.1 5.2.3 6 1.9 6 1.7 0 1.9-.7 1.6-4.7-.2-4.2 0-4.7 2.1-5 1.2-.2 2.4-1.1 2.6-2.1.3-1.3-.3-1.7-3-1.7-1.8 0-3.8.4-4.3.8zM252.5 258.8c-.6.4-1 3.4-.9 6.7.1 5.2.3 6 1.9 6 1.7 0 1.9-.7 1.6-4.7-.2-4.2 0-4.7 2.1-5 1.2-.2 2.4-1.1 2.6-2.1.3-1.3-.3-1.7-3-1.7-1.8 0-3.8.4-4.3.8zM291.9 258.2c-.7 1.3-.6 9.6.1 11.3.7 1.9 1.6 2.3 5.8 2.2l4.9-.1-.1-6.5c-.1-5.2-.4-6.6-1.6-6.6-1.1 0-1.6 1.4-2 5-.4 3.7-.9 5.1-2.2 5.3-1.5.3-1.8-.5-1.8-5.2 0-4.3-.3-5.6-1.5-5.6-.8 0-1.6.1-1.6.2zM143.6 286.2c-.9 1.2-1.6 3.9-1.6 6 0 2-.4 4-1 4.3-.5.3-1 1.3-1 2.2 0 1.4.3 1.4 2-.2 1.1-1 2-3 2-4.5 0-1.4.4-3 .9-3.6 1.3-1.4 2.3-6.4 1.2-6.4-.6 0-1.7 1-2.5 2.2zM72.7 290.1c-3.1 5.4-3.1 6.8.1 4.8 1.1-.7 2.7-.9 3.6-.6 2.9 1.1 3.1 1 2.8-2.4-.8-8.5-2.5-9-6.5-1.8zm4.3.4c0 .8-.4 1.5-.9 1.5-1.3 0-2.2-1.6-1.4-2.4 1.1-1.1 2.3-.6 2.3.9zM83 287.4c0 1.3-.3 3.9-.6 5.7-.5 2.5-.4 3.1.5 2.4 1.6-1.5 2.7-10.5 1.2-10.5-.6 0-1.1 1.1-1.1 2.4zM87.6 287.2c-.9 3.5-.7 9.3.3 8.2 1.2-1.3 2.3-10.4 1.2-10.4-.5 0-1.1 1-1.5 2.2zM96.7 285.7c-.3.5-.8 3-1.2 5.7-.6 4.5-.5 4.9.9 3.7 1.3-1.1 1.9-1.1 3.2 0 1.3 1.1 1.4.9.9-1.3-.4-1.5-.2-2.9.4-3.2.6-.4 1.1-1.2 1.1-1.8 0-.7-.5-.6-1.4.1-1.7 1.4-2.9 0-2-2.3.6-1.6-1.1-2.3-1.9-.9zM124.6 286.5c-.3.8-1.4 1.5-2.5 1.5-1 0-2.6 1-3.4 2.3-2 3.1-.5 5.7 3.3 5.7 2.6 0 2.9-.4 3.9-5 1.3-6.1 1.3-6 .2-6-.5 0-1.1.7-1.5 1.5zm-1.3 4.1c.9 1-.4 3.4-1.9 3.4-.8 0-1.4-.6-1.4-1.3 0-2.2 1.9-3.5 3.3-2.1zM153 287.4c-.5 1.4-1 3.7-1.2 5.3-.3 2.5 0 2.8 2.9 3.1 3.6.4 4.8-1.3 4.8-6.8 0-3.1-.3-3.5-2.7-3.8-2.2-.3-3 .2-3.8 2.2zm4.2 1.8c-1.5 1.5-2.6.4-1.8-1.8.5-1.3.9-1.5 1.8-.6s.9 1.5 0 2.4zm-1 5c-1.5 1.5-2.6.4-1.8-1.8.5-1.3.9-1.5 1.8-.6s.9 1.5 0 2.4zM198.2 286.7c-2.5 4.8-1.9 12.2.6 7.7.5-.8 2-2.1 3.3-2.8 3.5-1.7 3.3-6-.3-6.4-1.8-.2-3 .3-3.6 1.5zm4.8 1.8c0 .8-.7 1.5-1.5 1.5s-1.5-.7-1.5-1.5.7-1.5 1.5-1.5 1.5.7 1.5 1.5zM270.6 285.9c-1.3 2.1-1.9 10.1-.7 10.1.6 0 1.1-1.1 1.1-2.4 0-1.4.4-3.6 1-5 .9-2.5-.2-4.6-1.4-2.7zM275.5 286.9c-.3.6-.8 2.9-1 5.1-.3 3.1-.1 4 1.1 4 .9 0 1.4-.7 1.3-1.8-.2-.9.1-2.8.5-4.1.9-2.5-.7-5.1-1.9-3.2zM110.2 289.3c-1.5 1.7-2.6 6.7-1.5 6.7.5 0 1.4-1.4 2-3.1 1.3-3.3 3.9-3.1 3 .2-.3 1-.1 2.1.4 2.4 1.1.7 2.3-4 1.5-6-.7-1.8-4-2-5.4-.2zM133.8 289.2c-3.9 3.2-2 8.5 2.5 6.9 2.9-1.1 4.7-5.9 2.7-7.1-2-1.3-3.3-1.2-5.2.2zm4.2 2.2c0 2-2.6 4-3.5 2.6-1-1.6.2-4 2-4 .8 0 1.5.6 1.5 1.4zM163.3 289.2c-1.5 1.9-2.2 5.7-1.2 6.3.7.5 3.9-5.4 3.9-7.1 0-.9-1.8-.3-2.7.8zM169.5 289.6c-2.5 2.5-1.5 5.8 1.7 6.2 2.2.3 3-.2 3.9-2.2 2.2-4.8-1.8-7.7-5.6-4zm4.5 1.9c0 1.6-2.7 3.2-3.7 2.2-.3-.4-.3-1.3 0-2.2.8-2 3.7-2 3.7 0zM179.7 289.1c-1.4.8-1.6 1.4-.6 2.5.6.7.9 2.1.5 2.9-.3.9 0 1.5.9 1.5 2 0 2.9-1.9 1.6-3.4-.6-.7-.9-2.1-.5-3 .7-1.9.5-1.9-1.9-.5zM186.1 289.4c-.8 1-.9 1.6-.1 2.1.5.3 1 1.5 1 2.6 0 1 .5 1.9 1 1.9 1.7 0 2.4-3.1 1-4-.7-.4-1-1.2-.6-1.8 1-1.7-1-2.3-2.3-.8zM207.7 288.7c-1 1.8-1.8 7.3-1 7.3.5 0 1.5-1.5 2.3-3.3.7-1.7 1.5-3.5 1.8-4 .2-.4-.3-.7-1.2-.7-.8 0-1.7.3-1.9.7zM215.3 289c-2.2.9-3.9 4.3-2.8 6 .3.5 1.6 1 2.8 1 1.7 0 1.9-.2.8-.9-1.9-1.2-.6-4.3 1.6-3.9 1 .2 1.8-.3 1.8-1.1 0-1.8-1.4-2.2-4.2-1.1zM222.5 290.4c-1.9 2.8-1 5.6 1.8 5.6 1.6 0 1.8-.3.9-1.2-1.7-1.7-1.5-4.8.3-4.8.8 0 1.5-.5 1.5-1 0-1.9-3-1-4.5 1.4zM235.3 289.1c-.9.9-.9 1.6 0 3.1 1 1.5.9 2.1-.3 2.8-1.3.9-1.3 1 0 1 .8 0 2.1-.4 2.9-.9 1.2-.8 1.2-1.3.3-2.4-.7-.8-1-2.2-.6-3.1.7-1.8-.7-2.1-2.3-.5zM246.7 289.8c-2.3 2.5-2.1 4.9.3 6.2 1.7.9 2.5.6 4.5-1.5 2.1-2 2.4-2.8 1.5-4.5-1.3-2.5-4.2-2.6-6.3-.2zm4.3 1.7c0 1.6-2.7 3.2-3.7 2.1-.7-.7 1.6-3.6 2.8-3.6.5 0 .9.7.9 1.5zM256.7 288.7c-.9 1.5-1.8 7.3-1.2 7.3.3 0 1.1-1.4 1.7-3 1.2-3.7 3.4-3.4 3 .4-.1 1.4.2 2.6.7 2.6 1.2 0 2.5-5.6 1.6-7-.7-1.2-5.2-1.4-5.8-.3zM282.2 289.1c-1.8.7-2.3 1.5-2 3.6.2 1.6 1 2.9 1.9 3.1 1.3.2 1.5-.3 1.1-2.3-.4-2.2-.1-2.6 1.4-2.3 1.1.2 1.9-.3 1.9-1.1 0-1.9-1.4-2.2-4.3-1zM289.9 290.7c-.5 1.4-.8 3.4-.6 4.2.3 1.1.9.5 1.7-1.7 1.4-3.8 3.6-3.7 3.2.1-.5 3.7 1.4 3.4 2.2-.4.7-3.9 3.2-3.3 2.8.6-.3 2.5-.1 2.7 1.3 1.5.9-.8 1.5-2.4 1.3-3.9-.3-2.4-.7-2.6-5.6-2.8-4.9-.2-5.3-.1-6.3 2.4zM305.3 288.7c-1.6.6-1.7 3.3-.2 3.3.6 0 .8.9.4 2-.4 1.4-.2 2 .9 2 2.1 0 3-1.8 1.7-3.4-.6-.7-.9-2.1-.5-3 .6-1.6 0-1.9-2.3-.9zM104.8 289.6c-.5.4-.8 2.1-.8 3.8 0 2.1.3 2.7 1.1 1.9.6-.6.9-2.3.7-3.8-.2-1.5-.6-2.3-1-1.9zM229.6 291.6c-.4 1.5-.2 3.2.3 3.7.8.8 1.1.5 1.1-1 0-1.2.3-2.8.6-3.7.3-.9.2-1.6-.4-1.6-.5 0-1.3 1.2-1.6 2.6zM241.7 289.7c-.4.3-.7 2-.7 3.7 0 3.5 1.4 2.5 2.4-1.7.6-2.5-.2-3.5-1.7-2z"/></svg>